<mxfile host="app.diagrams.net" modified="2024-04-12T21:51:44.475Z" agent="Mozilla/5.0 (Macintosh; Intel Mac OS X 10_15_7) AppleWebKit/537.36 (KHTML, like Gecko) Chrome/123.0.0.0 Safari/537.36" etag="TSUGGY-5G0p23Fjch9wR" version="24.2.3" type="device">
  <diagram name="Page-1" id="2MbWBn2wLd76kONFoHYI">
    <mxGraphModel dx="987" dy="795" grid="1" gridSize="10" guides="1" tooltips="1" connect="1" arrows="1" fold="1" page="1" pageScale="1" pageWidth="850" pageHeight="1100" math="0" shadow="0">
      <root>
        <mxCell id="0" />
        <mxCell id="1" parent="0" />
        <mxCell id="9zbKknE8K1OT1BuQjNle-1" value="&lt;font data-font-src=&quot;https://fonts.googleapis.com/css?family=Roboto&quot;&gt;Mininet-YAML&lt;/font&gt;" style="text;html=1;align=center;verticalAlign=middle;whiteSpace=wrap;rounded=0;fontSize=52;fontFamily=Helvetica;" vertex="1" parent="1">
          <mxGeometry x="55" y="120" width="360" height="30" as="geometry" />
        </mxCell>
        <mxCell id="9zbKknE8K1OT1BuQjNle-7" value="" style="ellipse;whiteSpace=wrap;html=1;aspect=fixed;labelBackgroundColor=default;labelBorderColor=none;fillColor=#6a00ff;strokeColor=#3700CC;fontColor=#ffffff;" vertex="1" parent="1">
          <mxGeometry x="132" y="85" width="20" height="20" as="geometry" />
        </mxCell>
        <mxCell id="9zbKknE8K1OT1BuQjNle-8" value="" style="ellipse;whiteSpace=wrap;html=1;aspect=fixed;labelBackgroundColor=default;labelBorderColor=none;fillColor=#1ba1e2;strokeColor=#006EAF;fontColor=#ffffff;" vertex="1" parent="1">
          <mxGeometry x="118" y="114.5" width="7.5" height="7.5" as="geometry" />
        </mxCell>
        <mxCell id="9zbKknE8K1OT1BuQjNle-9" value="" style="ellipse;whiteSpace=wrap;html=1;aspect=fixed;labelBackgroundColor=default;labelBorderColor=none;fillColor=#1ba1e2;strokeColor=#006EAF;fontColor=#ffffff;" vertex="1" parent="1">
          <mxGeometry x="160" y="114.5" width="7.5" height="7.5" as="geometry" />
        </mxCell>
        <mxCell id="9zbKknE8K1OT1BuQjNle-15" value="" style="endArrow=none;html=1;rounded=0;entryX=0;entryY=1;entryDx=0;entryDy=0;exitX=1;exitY=0;exitDx=0;exitDy=0;" edge="1" parent="1" source="9zbKknE8K1OT1BuQjNle-8" target="9zbKknE8K1OT1BuQjNle-7">
          <mxGeometry width="50" height="50" relative="1" as="geometry">
            <mxPoint x="122" y="84.5" as="sourcePoint" />
            <mxPoint x="162" y="114.5" as="targetPoint" />
          </mxGeometry>
        </mxCell>
        <mxCell id="9zbKknE8K1OT1BuQjNle-20" value="" style="endArrow=none;html=1;rounded=0;entryX=1;entryY=1;entryDx=0;entryDy=0;exitX=0;exitY=0;exitDx=0;exitDy=0;" edge="1" parent="1" source="9zbKknE8K1OT1BuQjNle-9" target="9zbKknE8K1OT1BuQjNle-7">
          <mxGeometry width="50" height="50" relative="1" as="geometry">
            <mxPoint x="134" y="126" as="sourcePoint" />
            <mxPoint x="171" y="95" as="targetPoint" />
          </mxGeometry>
        </mxCell>
        <mxCell id="9zbKknE8K1OT1BuQjNle-24" value="" style="ellipse;whiteSpace=wrap;html=1;aspect=fixed;labelBackgroundColor=default;labelBorderColor=none;fillColor=#6a00ff;strokeColor=#3700CC;fontColor=#ffffff;" vertex="1" parent="1">
          <mxGeometry x="172" y="72" width="20" height="20" as="geometry" />
        </mxCell>
        <mxCell id="9zbKknE8K1OT1BuQjNle-27" value="" style="endArrow=none;html=1;rounded=0;entryX=0;entryY=0.5;entryDx=0;entryDy=0;exitX=0.982;exitY=0.336;exitDx=0;exitDy=0;exitPerimeter=0;" edge="1" parent="1" source="9zbKknE8K1OT1BuQjNle-7" target="9zbKknE8K1OT1BuQjNle-24">
          <mxGeometry width="50" height="50" relative="1" as="geometry">
            <mxPoint x="152" y="95" as="sourcePoint" />
            <mxPoint x="182" y="105" as="targetPoint" />
          </mxGeometry>
        </mxCell>
        <mxCell id="9zbKknE8K1OT1BuQjNle-29" value="" style="ellipse;whiteSpace=wrap;html=1;aspect=fixed;labelBackgroundColor=default;labelBorderColor=none;fillColor=#1ba1e2;strokeColor=#006EAF;fontColor=#ffffff;" vertex="1" parent="1">
          <mxGeometry x="202" y="92" width="20" height="20" as="geometry" />
        </mxCell>
        <mxCell id="9zbKknE8K1OT1BuQjNle-30" value="" style="ellipse;whiteSpace=wrap;html=1;aspect=fixed;labelBackgroundColor=default;labelBorderColor=none;fillColor=#6a00ff;strokeColor=#3700CC;fontColor=#ffffff;" vertex="1" parent="1">
          <mxGeometry x="242" y="65" width="20" height="20" as="geometry" />
        </mxCell>
        <mxCell id="9zbKknE8K1OT1BuQjNle-31" value="" style="endArrow=none;html=1;rounded=0;entryX=0;entryY=0.5;entryDx=0;entryDy=0;exitX=0.992;exitY=0.35;exitDx=0;exitDy=0;exitPerimeter=0;" edge="1" parent="1" source="9zbKknE8K1OT1BuQjNle-24" target="9zbKknE8K1OT1BuQjNle-30">
          <mxGeometry width="50" height="50" relative="1" as="geometry">
            <mxPoint x="202" y="85" as="sourcePoint" />
            <mxPoint x="232" y="78" as="targetPoint" />
          </mxGeometry>
        </mxCell>
        <mxCell id="9zbKknE8K1OT1BuQjNle-32" value="" style="endArrow=none;html=1;rounded=0;entryX=0.018;entryY=0.307;entryDx=0;entryDy=0;exitX=1;exitY=1;exitDx=0;exitDy=0;entryPerimeter=0;" edge="1" parent="1" source="9zbKknE8K1OT1BuQjNle-24" target="9zbKknE8K1OT1BuQjNle-29">
          <mxGeometry width="50" height="50" relative="1" as="geometry">
            <mxPoint x="216" y="92" as="sourcePoint" />
            <mxPoint x="266" y="92" as="targetPoint" />
          </mxGeometry>
        </mxCell>
        <mxCell id="9zbKknE8K1OT1BuQjNle-33" value="" style="endArrow=none;html=1;rounded=0;entryX=0.975;entryY=0.308;entryDx=0;entryDy=0;exitX=0;exitY=1;exitDx=0;exitDy=0;entryPerimeter=0;" edge="1" parent="1" source="9zbKknE8K1OT1BuQjNle-30" target="9zbKknE8K1OT1BuQjNle-29">
          <mxGeometry width="50" height="50" relative="1" as="geometry">
            <mxPoint x="282" y="80" as="sourcePoint" />
            <mxPoint x="301" y="92" as="targetPoint" />
          </mxGeometry>
        </mxCell>
        <mxCell id="9zbKknE8K1OT1BuQjNle-34" value="" style="ellipse;whiteSpace=wrap;html=1;aspect=fixed;labelBackgroundColor=default;labelBorderColor=none;fillColor=#1ba1e2;strokeColor=#006EAF;fontColor=#ffffff;" vertex="1" parent="1">
          <mxGeometry x="282" y="85" width="20" height="20" as="geometry" />
        </mxCell>
        <mxCell id="9zbKknE8K1OT1BuQjNle-35" value="" style="endArrow=none;html=1;rounded=0;entryX=0.977;entryY=0.74;entryDx=0;entryDy=0;exitX=0.008;exitY=0.363;exitDx=0;exitDy=0;entryPerimeter=0;exitPerimeter=0;" edge="1" parent="1" source="9zbKknE8K1OT1BuQjNle-34" target="9zbKknE8K1OT1BuQjNle-30">
          <mxGeometry width="50" height="50" relative="1" as="geometry">
            <mxPoint x="298" y="72" as="sourcePoint" />
            <mxPoint x="276" y="81" as="targetPoint" />
          </mxGeometry>
        </mxCell>
        <mxCell id="9zbKknE8K1OT1BuQjNle-38" value="r1" style="text;html=1;align=center;verticalAlign=middle;whiteSpace=wrap;rounded=0;fontSize=7;fontColor=#ffffff;" vertex="1" parent="1">
          <mxGeometry x="140" y="94" width="4" height="2" as="geometry" />
        </mxCell>
        <mxCell id="9zbKknE8K1OT1BuQjNle-40" value="r2" style="text;html=1;align=center;verticalAlign=middle;whiteSpace=wrap;rounded=0;fontSize=7;fontColor=#ffffff;" vertex="1" parent="1">
          <mxGeometry x="180" y="81" width="4" height="2" as="geometry" />
        </mxCell>
        <mxCell id="9zbKknE8K1OT1BuQjNle-41" value="r3" style="text;html=1;align=center;verticalAlign=middle;whiteSpace=wrap;rounded=0;fontSize=7;fontColor=#ffffff;" vertex="1" parent="1">
          <mxGeometry x="250" y="74" width="4" height="2" as="geometry" />
        </mxCell>
        <mxCell id="9zbKknE8K1OT1BuQjNle-42" value="h1" style="text;html=1;align=center;verticalAlign=middle;whiteSpace=wrap;rounded=0;fontSize=7;fontColor=#ffffff;" vertex="1" parent="1">
          <mxGeometry x="210" y="101" width="4" height="2" as="geometry" />
        </mxCell>
        <mxCell id="9zbKknE8K1OT1BuQjNle-43" value="h2" style="text;html=1;align=center;verticalAlign=middle;whiteSpace=wrap;rounded=0;fontSize=7;fontColor=#ffffff;" vertex="1" parent="1">
          <mxGeometry x="290" y="94" width="4" height="2" as="geometry" />
        </mxCell>
      </root>
    </mxGraphModel>
  </diagram>
</mxfile>
